<svg width="280" height="80" viewBox="0 0 280 80" fill="none" xmlns="http://www.w3.org/2000/svg" class="block h-9 w-auto fill-current text-gray-800 dark:text-gray-200">
      <rect width="279.77" height="80" fill="black"></rect>
      <path d="M59.461 37.564C60.049 39.706 60.343 42.037 60.343 44.557C60.343 46.825 60.007 49.072 59.335 51.298C58.747 53.314 57.823 55.099 56.563 56.653C55.429 58.081 53.98 59.257 52.216 60.181C50.578 61.021 48.646 61.441 46.42 61.441C44.572 61.441 43.039 61.168 41.821 60.622C40.435 59.992 39.28 59.215 38.356 58.291V65.284C38.776 65.368 39.133 65.431 39.427 65.473C39.763 65.557 40.036 65.62 40.246 65.662C40.918 65.746 41.233 65.788 41.191 65.788L41.569 65.851C42.619 66.103 43.144 66.775 43.144 67.867V71.521H25.819V67.867C25.819 66.775 26.344 66.103 27.394 65.851L27.772 65.788L28.717 65.662L30.607 65.284V34.918L28.717 34.603C28.507 34.561 28.318 34.519 28.15 34.477C28.024 34.435 27.898 34.414 27.772 34.414L27.394 34.351C26.344 34.099 25.819 33.448 25.819 32.398V28.681H35.332C35.836 28.681 36.277 28.807 36.655 29.059C36.991 29.269 37.222 29.626 37.348 30.13L37.978 33.091C39.238 31.663 40.729 30.466 42.451 29.5C44.131 28.576 46.105 28.114 48.373 28.114C50.221 28.114 51.838 28.471 53.224 29.185C54.694 29.941 55.954 31.012 57.004 32.398C58.054 33.742 58.873 35.464 59.461 37.564ZM51.775 49.471C52.111 48.253 52.279 46.636 52.279 44.62C52.279 42.604 52.132 40.987 51.838 39.769C51.544 38.509 51.103 37.459 50.515 36.619C49.927 35.779 49.234 35.17 48.436 34.792C47.638 34.414 46.735 34.225 45.727 34.225C44.047 34.225 42.661 34.561 41.569 35.233C40.393 35.947 39.322 36.913 38.356 38.131V52.621C39.196 53.671 40.162 54.427 41.254 54.889C42.22 55.309 43.333 55.519 44.593 55.519C45.853 55.519 46.924 55.309 47.806 54.889C48.646 54.511 49.444 53.839 50.2 52.873C50.914 51.907 51.439 50.773 51.775 49.471ZM89.1434 60.874C88.6814 60.874 88.2614 60.748 87.8834 60.496C87.5474 60.286 87.3164 59.929 87.1904 59.425L86.5604 56.464C85.3004 57.892 83.8094 59.089 82.0874 60.055C80.4074 60.979 78.4124 61.441 76.1024 61.441C74.2964 61.441 72.7004 61.084 71.3144 60.37C69.8444 59.614 68.5844 58.543 67.5344 57.157C66.4844 55.813 65.6654 54.091 65.0774 51.991C64.4894 49.849 64.1954 47.497 64.1954 44.935C64.1954 42.541 64.5104 40.315 65.1404 38.257C65.7284 36.325 66.6734 34.54 67.9754 32.902C69.1094 31.474 70.5584 30.298 72.3224 29.374C74.0024 28.492 75.9134 28.051 78.0554 28.051C79.8614 28.051 81.4154 28.345 82.7174 28.933C84.1034 29.563 85.2374 30.319 86.1194 31.201V20.428L84.2924 20.113C84.0824 20.071 83.8934 20.029 83.7254 19.987C83.5994 19.945 83.4734 19.924 83.3474 19.924L82.9694 19.861C81.9194 19.609 81.3944 18.958 81.3944 17.908V14.191H93.9314V54.7L95.5694 54.952L96.3884 55.141L96.7664 55.204C97.8164 55.456 98.3414 56.107 98.3414 57.157V60.874H89.1434ZM86.1824 36.934C85.3424 35.884 84.3764 35.128 83.2844 34.666C82.1504 34.204 81.0164 33.973 79.8824 33.973C78.7904 33.973 77.7404 34.204 76.7324 34.666C75.8084 35.086 74.9894 35.758 74.2754 36.682C73.6454 37.564 73.1414 38.698 72.7634 40.084C72.4274 41.302 72.2594 42.919 72.2594 44.935C72.2594 46.951 72.4064 48.568 72.7004 49.786C72.9944 51.046 73.4354 52.096 74.0234 52.936C74.6114 53.818 75.2834 54.427 76.0394 54.763C76.8374 55.141 77.7614 55.33 78.8114 55.33C80.4914 55.33 81.8774 54.994 82.9694 54.322C84.1454 53.608 85.2164 52.642 86.1824 51.424V36.934ZM142.205 60.874C141.449 61.084 140.798 61.252 140.252 61.378C139.412 61.462 138.74 61.504 138.236 61.504C136.43 61.504 134.813 61.231 133.385 60.685C132.083 60.139 131.033 59.404 130.235 58.48C129.437 57.556 128.849 56.464 128.471 55.204C128.093 53.944 127.904 52.621 127.904 51.235V20.176H121.982C119.672 20.176 117.866 20.827 116.564 22.129C115.304 23.431 114.674 25.258 114.674 27.61V28.933H122.36V34.477H114.926V54.763C115.262 54.805 115.598 54.868 115.934 54.952C116.27 55.036 116.585 55.099 116.879 55.141L118.013 55.267L118.517 55.33C119.567 55.582 120.092 56.254 120.092 57.346V61H102.389V57.346C102.389 56.254 102.914 55.582 103.964 55.33L104.405 55.267L105.287 55.141L107.177 54.763V34.54L104.405 34.099C103.817 33.973 103.334 33.763 102.956 33.469C102.578 33.133 102.389 32.692 102.389 32.146V28.933H107.177V27.61C107.177 25.804 107.45 24.145 107.996 22.633C108.5 21.037 109.319 19.651 110.453 18.475C111.587 17.257 112.994 16.312 114.674 15.64C116.354 14.884 118.391 14.506 120.785 14.506C122.633 14.506 124.418 14.569 126.14 14.695C127.82 14.821 129.542 14.884 131.306 14.884H135.653V51.235C135.653 51.781 135.737 52.474 135.905 53.314C136.031 53.818 136.262 54.28 136.598 54.7C136.892 54.994 137.333 55.246 137.921 55.456C138.593 55.624 139.244 55.708 139.874 55.708C140.672 55.708 141.197 55.771 141.449 55.897C141.743 56.023 141.911 56.296 141.953 56.716L142.205 60.874ZM182.652 32.398C182.652 33.448 182.127 34.099 181.077 34.351C180.909 34.351 180.657 34.393 180.321 34.477C179.985 34.561 179.25 34.708 178.116 34.918L163.185 69.883C162.933 70.471 162.618 70.891 162.24 71.143C161.946 71.395 161.4 71.521 160.602 71.521H154.806L160.854 58.606L150.459 34.918C149.325 34.708 148.59 34.561 148.254 34.477C147.918 34.393 147.666 34.351 147.498 34.351C146.448 34.099 145.923 33.448 145.923 32.398V28.681H161.673V32.398C161.673 33.448 161.148 34.099 160.098 34.351L158.586 34.603L163.689 46.888C163.857 47.266 163.983 47.602 164.067 47.896C164.151 48.19 164.214 48.421 164.256 48.589C164.34 48.883 164.487 49.471 164.697 50.353L165.264 48.589C165.516 47.833 165.726 47.266 165.894 46.888L170.619 34.729L168.477 34.351C167.427 34.099 166.902 33.448 166.902 32.398V28.681H182.652V32.398ZM187.145 56.716C187.145 56.002 187.271 55.372 187.523 54.826C187.775 54.238 188.111 53.734 188.531 53.314C188.951 52.894 189.455 52.558 190.043 52.306C190.631 52.054 191.261 51.928 191.933 51.928C192.605 51.928 193.235 52.054 193.823 52.306C194.411 52.558 194.915 52.894 195.335 53.314C195.755 53.734 196.091 54.238 196.343 54.826C196.595 55.372 196.721 56.002 196.721 56.716C196.721 57.388 196.595 58.018 196.343 58.606C196.091 59.152 195.755 59.635 195.335 60.055C194.915 60.475 194.411 60.811 193.823 61.063C193.277 61.315 192.668 61.441 191.996 61.441C191.324 61.441 190.694 61.315 190.106 61.063C189.434 60.769 188.909 60.433 188.531 60.055C188.111 59.635 187.775 59.152 187.523 58.606C187.271 58.018 187.145 57.388 187.145 56.716ZM230.308 55.267C231.358 55.519 231.883 56.17 231.883 57.22V60.937H224.449C223.651 60.937 223.063 60.832 222.685 60.622C222.265 60.454 221.95 59.992 221.74 59.236L221.047 56.968C220.207 57.766 219.409 58.417 218.653 58.921C218.065 59.341 217.246 59.803 216.196 60.307C215.44 60.643 214.558 60.916 213.55 61.126C212.5 61.336 211.45 61.441 210.4 61.441C209.014 61.441 207.754 61.252 206.62 60.874C205.402 60.454 204.415 59.908 203.659 59.236C202.777 58.438 202.126 57.514 201.706 56.464C201.244 55.33 201.013 54.07 201.013 52.684C201.013 51.424 201.328 50.206 201.958 49.03C202.588 47.812 203.659 46.741 205.171 45.817C206.767 44.809 208.741 44.011 211.093 43.423C213.571 42.793 216.658 42.478 220.354 42.478V40.588C220.354 38.488 219.892 36.871 218.968 35.737C218.086 34.687 216.763 34.162 214.999 34.162C213.655 34.162 212.605 34.309 211.849 34.603C210.883 34.981 210.148 35.317 209.644 35.611L207.943 36.556C207.481 36.85 206.914 36.997 206.242 36.997C205.696 36.997 205.234 36.871 204.856 36.619C204.604 36.451 204.31 36.115 203.974 35.611L202.525 33.154C206.305 29.71 210.778 27.988 215.944 27.988C217.834 27.988 219.535 28.303 221.047 28.933C222.517 29.563 223.756 30.424 224.764 31.516C225.898 32.818 226.696 34.141 227.158 35.485C227.662 36.997 227.914 38.677 227.914 40.525V54.826L229.615 55.141L230.308 55.267ZM220.354 47.203C218.002 47.203 216.112 47.35 214.684 47.644C213.13 47.98 211.891 48.358 210.967 48.778C210.043 49.198 209.392 49.702 209.014 50.29C208.636 50.836 208.447 51.487 208.447 52.243C208.447 53.671 208.846 54.658 209.644 55.204C210.484 55.792 211.534 56.086 212.794 56.086C213.592 56.086 214.327 56.023 214.999 55.897C215.713 55.771 216.364 55.54 216.952 55.204C217.708 54.784 218.275 54.427 218.653 54.133C219.241 53.671 219.808 53.167 220.354 52.621V47.203ZM249.806 19.231C249.806 19.819 249.659 20.449 249.365 21.121C249.113 21.709 248.756 22.234 248.294 22.696C247.79 23.2 247.265 23.557 246.719 23.767C246.089 24.019 245.438 24.145 244.766 24.145C244.094 24.145 243.443 24.019 242.813 23.767C242.309 23.557 241.805 23.2 241.301 22.696C240.839 22.234 240.482 21.709 240.23 21.121C239.978 20.533 239.852 19.903 239.852 19.231C239.852 18.559 239.978 17.908 240.23 17.278C240.44 16.732 240.797 16.207 241.301 15.703C241.763 15.241 242.267 14.905 242.813 14.695C243.569 14.401 244.22 14.254 244.766 14.254C245.312 14.254 245.963 14.401 246.719 14.695C247.349 14.947 247.874 15.283 248.294 15.703C248.798 16.207 249.155 16.732 249.365 17.278C249.659 17.992 249.806 18.643 249.806 19.231ZM251.822 55.33C252.872 55.582 253.397 56.233 253.397 57.283V61H236.072V57.283C236.072 56.233 236.597 55.582 237.647 55.33L238.025 55.267L238.97 55.078L240.86 54.763V34.918L238.97 34.603C238.76 34.561 238.571 34.519 238.403 34.477C238.277 34.435 238.151 34.414 238.025 34.414L237.647 34.351C236.597 34.099 236.072 33.448 236.072 32.398V28.681H248.609V54.763L250.499 55.078C250.709 55.12 250.877 55.162 251.003 55.204C251.171 55.246 251.318 55.267 251.444 55.267L251.822 55.33Z" fill="white"></path>
      </svg>